<svg xmlns="http://www.w3.org/2000/svg" width="126.846" height="88.146" viewBox="0 0 126.846 88.146">
  <path id="path877" d="M90.323,0Q90.1.005,89.87.03a5.351,5.351,0,0,0-1.817.531,5.583,5.583,0,0,0-1.559,1.19,11.841,11.841,0,0,0-1.238,1.672,6,6,0,0,1-.659-.1c-.322-.048-.8-.161-1.367-.305-.579-.161-1.239-.37-1.721-.547s-.8-.322-1.094-.435a9.262,9.262,0,0,0-.948-.225c-.37-.064-.837-.145-1.271-.225-.418-.08-.82-.145-1.255-.225-.418-.064-.9-.128-1.752-.241C74.337,1.027,73.1.9,72.15.786,71.2.69,70.51.625,69.979.609A5.151,5.151,0,0,0,68.741.69c-.29.081-.483.176-.82.289-.354.1-.851.225-1.27.369a8.161,8.161,0,0,0-1.126.515c-.225-.112-.467-.241-.627-.322a.71.71,0,0,0-.4-.16.988.988,0,0,0-.531.129,1.707,1.707,0,0,0-.515.449,3.348,3.348,0,0,1-.483.612,3.341,3.341,0,0,1-.723.482,5.756,5.756,0,0,0-.723.418,2.733,2.733,0,0,0-.5.45,3.566,3.566,0,0,1-.466.531c-.193.161-.45.305-.676.466a2.277,2.277,0,0,0-.691.676A6.085,6.085,0,0,0,58.5,7.073a8.78,8.78,0,0,0-.483,1.994,4.11,4.11,0,0,0,.193,1.64,5.058,5.058,0,0,0,1,1.721c.563.707,1.463,1.64,2.235,2.476.772.82,1.431,1.544,2.235,2.332s1.737,1.656,2.332,2.122a10.54,10.54,0,0,0,1.061.724,2.967,2.967,0,0,1,.691.724c.209.273.37.547.563.8a4.084,4.084,0,0,0,.531.659,1.03,1.03,0,0,0,.4.225.631.631,0,0,0,.128.338,2.68,2.68,0,0,0,.37.354.391.391,0,0,0-.031.289,3.946,3.946,0,0,0,.225.547,10.862,10.862,0,0,0-.933.964c-.354.418-.788.981-1.206,1.544a10.564,10.564,0,0,1-1.608-.064,5.936,5.936,0,0,1-2.059-.853c-1.077-.594-2.8-1.623-4-2.17a5.04,5.04,0,0,0-2.331-.627.981.981,0,0,0-.788.289.857.857,0,0,0-.193.6,2.526,2.526,0,0,0,.225.724,11.081,11.081,0,0,0-1.205.258,5.257,5.257,0,0,0-.965.418,20.121,20.121,0,0,1-2.541-.82c-1.11-.45-2.638-1.158-3.972-1.592a13.223,13.223,0,0,0-3.682-.579,20.283,20.283,0,0,0-3.425.242,17.579,17.579,0,0,0-3.28.884,18.724,18.724,0,0,0-2.733,1.335,24.03,24.03,0,0,0-2.22,1.479c-.611.482-1.061.933-1.639,1.335-.579.418-1.287.771-1.818,1.125-.546.354-.933.676-1.463,1a20.227,20.227,0,0,1-1.962.981,14.985,14.985,0,0,0-2.09,1.062,9.3,9.3,0,0,0-1.56,1.4A14.793,14.793,0,0,1,24.1,31.707a7.694,7.694,0,0,1,1.576-.74,18.946,18.946,0,0,0-1.608,1.222,16.959,16.959,0,0,0-1.19,1.27,8.366,8.366,0,0,1-1.334,1.19c-.6.4-1.4.853-2.22,1.3q.844-.289,1.641-.627c.547-.225,1.061-.482,1.575-.739A14.958,14.958,0,0,1,21.178,35.6c-.691.45-1.705,1.061-2.718,1.689,1.061-.45,2.123-.9,2.814-1.254a7.112,7.112,0,0,0,1.334-.82c-.434.434-.868.867-1.3,1.221-.435.338-.852.6-1.431.965-.6.386-1.367.9-2.139,1.415a13.913,13.913,0,0,1,1.222-.674c.483-.209,1.062-.419,1.625-.627a6.762,6.762,0,0,0-1,.643,9.383,9.383,0,0,0-1.769,1.8,20.873,20.873,0,0,0-1.7,2.991,18.814,18.814,0,0,1,1.56-2.074A7.032,7.032,0,0,1,19.1,39.747a7.52,7.52,0,0,0-1.045,1.913,15.471,15.471,0,0,0-.563,2.686,26.935,26.935,0,0,1,1.142-3.216,8.487,8.487,0,0,1,1.19-1.882c-.193.435-.4.884-.659,1.576-.273.691-.6,1.64-1.238,3.1a44.627,44.627,0,0,1-2.493,4.84,9.224,9.224,0,0,1-2.8,3.039A22.5,22.5,0,0,1,8.844,53.64a23.456,23.456,0,0,0,3.264-1.11,6.9,6.9,0,0,0,2.574-1.994,38.877,38.877,0,0,0,2.765-4.052c-.37.756-.74,1.5-1.287,2.461A14.355,14.355,0,0,1,14.1,51.9,6.823,6.823,0,0,1,11.239,53.5c-1.157.37-2.588.708-3.746,1a17.913,17.913,0,0,0-2.734.82,8.077,8.077,0,0,0-1.656,1,12.717,12.717,0,0,1,2.332-1.077,17.4,17.4,0,0,1,2.588-.45c.868-.129,1.737-.273,2.589-.434-.82.322-1.656.643-2.653,1.029-1,.37-2.155.8-3.522,1.174C3.088,56.937,1.544,57.257,0,57.6a8.324,8.324,0,0,0,1.785-.1c.82-.129,2.01-.4,3.039-.611,1.03-.193,1.913-.305,2.8-.434a10.371,10.371,0,0,0-1.318.53,4.914,4.914,0,0,0-1.559,1.3,13.812,13.812,0,0,0-.976,1.424c.016-.021.026-.037.043-.058A9.106,9.106,0,0,1,5.74,57.821a5.286,5.286,0,0,1,1.833-.659A12.8,12.8,0,0,0,10,56.2c1.254-.611,3.168-1.592,5.081-2.573-1.174.643-2.347,1.287-3.376,1.93-1.029.627-1.93,1.27-2.9,1.993-.981.723-2.026,1.512-3.087,2.316,1.206-.82,2.4-1.656,3.329-2.267.917-.627,1.559-1.029,2.219-1.431C9.535,57.451,7.815,58.737,6.239,59.7A37.276,37.276,0,0,1,1.8,61.954,17.3,17.3,0,0,0,4.261,61.1,29.457,29.457,0,0,0,6.978,59.67c.9-.53,1.753-1.03,2.6-1.528a29.844,29.844,0,0,0-2.781,2.2,9.174,9.174,0,0,0-2.075,2.588,3.954,3.954,0,0,0-.256,2.236,4.331,4.331,0,0,1,.145-1.608A4.176,4.176,0,0,1,5.934,61.7c.74-.659,1.849-1.335,3.249-2.38,1.4-1.029,3.086-2.412,4.791-3.795a40.483,40.483,0,0,0-3.329,3.249,15.034,15.034,0,0,0-1.849,2.7,12.483,12.483,0,0,1,1.8-2.347c1-1.03,2.589-2.477,4.181-3.908-1.512,1.608-3.008,3.216-4.181,4.615s-2.026,2.6-2.862,3.795a78.1,78.1,0,0,1,5.628-6.464,57.931,57.931,0,0,1,6-4.952c-.948.771-1.882,1.544-2.734,2.3-.836.756-1.576,1.5-2.3,2.235a38.159,38.159,0,0,1,3.747-3.232c1.27-.933,2.589-1.624,3.843-2.444a13.277,13.277,0,0,0,3.1-2.59,5.221,5.221,0,0,0,1.014-2.459c.048.08.079.144.224.353.129.209.354.547.579.9a10.838,10.838,0,0,0,1.19,1.4,17,17,0,0,0,1.656,1.4c.45.322.692.435,1.158.82.483.386,1.19,1.045,1.9,1.7a10.3,10.3,0,0,1-.418,1.592,8.727,8.727,0,0,1-1.206,2.251,31.453,31.453,0,0,1-2.235,2.541,8.886,8.886,0,0,0-1.045,1.093A2.43,2.43,0,0,0,27.4,61.2a2.4,2.4,0,0,0,.258,1.351,2.705,2.705,0,0,0,1.061,1.109,19.443,19.443,0,0,0,1.93.836c.933.386,2.251,1.029,3.876,1.817,1.624.772,3.553,1.7,5.129,2.605a34.213,34.213,0,0,1,3.522,2.315,5.467,5.467,0,0,1,.981.885,1.279,1.279,0,0,0,.45.353c.161.065.338.081.483.145a1.733,1.733,0,0,1,.353.339,2.477,2.477,0,0,1,.354.369.266.266,0,0,1-.032.322,1.121,1.121,0,0,1-.337.225.411.411,0,0,0-.177.193,1.986,1.986,0,0,0-.145.531,4.3,4.3,0,0,0-.016.788,3.212,3.212,0,0,0,.129.53.591.591,0,0,0-.273-.079c-.081-.016-.161.016-.209.177a1.615,1.615,0,0,0,.161,1.028,10.332,10.332,0,0,0,1.174,2.091,5.42,5.42,0,0,0,1.335,1.3c.354.225.547.209.756.081a2.259,2.259,0,0,0,.74-1.03c.273-.627.611-1.655.8-2.283a3.547,3.547,0,0,0,.272-1.11,6,6,0,0,0-.128-.9c-.065-.37-.113-.82-.162-1.271,1.608,1.271,3.216,2.541,4.213,3.345a11.858,11.858,0,0,1,1.544,1.383,5.126,5.126,0,0,1,.354.514,5.449,5.449,0,0,0,.61.612,1.185,1.185,0,0,0,.482.256,1.286,1.286,0,0,1,.467.113,2.14,2.14,0,0,1,.691.611,5.176,5.176,0,0,1,.5.933,3.323,3.323,0,0,0-.772.611,1.466,1.466,0,0,0-.29.932,6.4,6.4,0,0,0,.29,1.3.546.546,0,0,0-.129.4,1.728,1.728,0,0,0,.515,1.062,7.688,7.688,0,0,0,1.881,1.543,4.36,4.36,0,0,0,1.85.6,1.815,1.815,0,0,0,1.045-.145.609.609,0,0,0,.3-.386c-.209-1.544-.434-3.1-.643-4.648a2.461,2.461,0,0,1-.209-.353,6.794,6.794,0,0,1-.338-.837,11.659,11.659,0,0,0-.53-1.3c-.322-.611-.836-1.448-1.142-2.123a6.517,6.517,0,0,1-.418-1.479.946.946,0,0,0-.387-.61c-.241-.161-.6-.386-1.045-.724-.45-.322-.965-.74-1.479-1.158a7.24,7.24,0,0,1,.917.353,6.8,6.8,0,0,1,1.431.9c.483.418.949.948,1.271,1.238a1.217,1.217,0,0,0,.691.386c.241.032.547.064,1,.112.434.048,1.029.113,2.026.273,1,.177,2.4.45,3.489.676s1.865.4,2.524.6c.643.209,1.174.434,1.592.547a2,2,0,0,0,1.19.015,7.988,7.988,0,0,0,1.5-.531,5.815,5.815,0,0,0,1.206-.739,2.262,2.262,0,0,0,.546-.852,3.157,3.157,0,0,0,.193-1.03c.016-.386-.032-.852.032-1.64s.241-1.913.418-3.055.338-2.284.531-3.265c.193-.965.418-1.769.547-2.4.129-.643.177-1.094.241-1.544a5.007,5.007,0,0,1,.627-.868,5.085,5.085,0,0,1,1.7-1.158c1-.5,2.589-1.142,3.522-1.544s1.222-.579,1.383-.643a.376.376,0,0,1,.354.032c.112.048.289.1.563.177.257.081.627.193.884.258a3.1,3.1,0,0,1,.691.161c.257.1.6.273,1.142.531.563.258,1.319.594,2.67,1.077,1.367.466,3.313,1.062,4.342,1.4a8.086,8.086,0,0,1,1.254.45,1.129,1.129,0,0,0,.37.128,1.478,1.478,0,0,1,.434.145,4.33,4.33,0,0,1,.756.659,2.843,2.843,0,0,1,.563.836,1.039,1.039,0,0,1-.161,1.013,13.831,13.831,0,0,1-1.431,1.946,20.733,20.733,0,0,1-1.962,1.977,9.528,9.528,0,0,1-1.753,1.238,3.507,3.507,0,0,1-.851.322,1.2,1.2,0,0,0-.579.241.643.643,0,0,0-.145.483c-.258,0-.515,0-.724-.015a1.266,1.266,0,0,1-.5-.113.988.988,0,0,1-.257-.37,1.722,1.722,0,0,0-.37-.546.645.645,0,0,0-.483-.177,1.743,1.743,0,0,0-.369.144.958.958,0,0,1-.466.048c-.1-.016-.1-.1-.145-.144-.032-.032-.113-.064-.354-.032a2.209,2.209,0,0,0-.884.209,1.031,1.031,0,0,0-.4.61,2.857,2.857,0,0,1-.354-.079,1.746,1.746,0,0,0,.145-.4c0-.113-.048-.177-.129-.193-.064,0-.16.048-.5.273a15.009,15.009,0,0,0-1.448,1.028,4.235,4.235,0,0,0-1.013,1.142,1.11,1.11,0,0,0-.161.884,1.187,1.187,0,0,0,.483.564,1.874,1.874,0,0,0,.933.273c.53.048,1.431.08,1.994.144.547.065.756.161.981.177a2.508,2.508,0,0,0,.756-.048c.305-.032.659-.1.917-.1.257-.016.418.015.626-.017s.451-.128.788-.16a4.782,4.782,0,0,1,1.238.079c.434.065.851.177,1.221.225a1.911,1.911,0,0,0,1.013-.048,1.791,1.791,0,0,0,.74-.562,16.946,16.946,0,0,1,1.205-1.544c.853-1,2.4-2.7,3.264-3.65a11.647,11.647,0,0,1,1.222-1.27,2.839,2.839,0,0,0,.676-.466,8.894,8.894,0,0,0,.948-1.174c.209-.306.178-.386.162-.515a3.748,3.748,0,0,1-.016-.676c.016-.353.08-.868.064-1.415a4.925,4.925,0,0,0-.306-1.576,2.594,2.594,0,0,0-.82-1.093,14.413,14.413,0,0,0-1.3-.9,6.988,6.988,0,0,1-1.109-.933c-.418-.4-.965-1-1.576-1.625-.611-.611-1.286-1.27-1.816-1.8a12.8,12.8,0,0,1-1.174-1.3,13.869,13.869,0,0,1-.82-1.319c.579-.691,1.142-1.368,1.656-2.027a13.188,13.188,0,0,0,1.286-1.9,4.664,4.664,0,0,0,.627-2.2,19.833,19.833,0,0,0-.193-2.911,11.654,11.654,0,0,1-.081-2.17,4.847,4.847,0,0,1,.563-2.026c.418-.884,1.126-2.091,2.042-3.634.917-1.528,2.058-3.377,2.862-4.535a5.983,5.983,0,0,1,1.914-1.945,10.528,10.528,0,0,1,1.962-.74c.258.241.532.5.708.691a3.78,3.78,0,0,0,.37.418.962.962,0,0,0,0,.369.771.771,0,0,0,.241.466.441.441,0,0,0,.418.1.771.771,0,0,0,.4-.193h.016a1.832,1.832,0,0,0,.466.241,1.025,1.025,0,0,0,.756.016,3.7,3.7,0,0,0,.61-.273c.129-.064.177-.032.193.016.016.032,0,.112.016.193.032.081.113.177.145.258a.278.278,0,0,1,.016.193c0,.048,0,.081.129.177.145.1.419.257.708.418.129-.048.273-.113.418-.177a5.76,5.76,0,0,0,.74.45c.37.193.9.434,1.64.74.081.032.177.081.273.113a1.71,1.71,0,0,0-.1.3.876.876,0,0,0,.081.6,1.1,1.1,0,0,0,.515.45,2.129,2.129,0,0,0,.837.193c.209.016.45,0,.691,0a1.333,1.333,0,0,0-.1.563,4.837,4.837,0,0,1,.1.611,1.067,1.067,0,0,1-.193.515,4.908,4.908,0,0,0-.258.435c-.048.128-.048.192-.016.192.048,0,.128-.1.193-.161a.28.28,0,0,1,.177-.1.35.35,0,0,1,.144.113.183.183,0,0,0,.129-.017.285.285,0,0,1,.225.017,2.1,2.1,0,0,1,.353.273c.386-.418.788-.853,1.045-1.094a1.3,1.3,0,0,1,.5-.322,1.761,1.761,0,0,1,.273.209c.112.1.29.257.435.369a1.01,1.01,0,0,0,.53.242,2.269,2.269,0,0,0,.724-.048,4.917,4.917,0,0,1,.611-.161,2.246,2.246,0,0,1,.466,0,1.171,1.171,0,0,0,.627-.177,1.6,1.6,0,0,0,.418-.547,4,4,0,0,0,.418-.032,1.271,1.271,0,0,0,.579-.177,5.157,5.157,0,0,0,.82-.612.624.624,0,0,0,.241-.466,3.24,3.24,0,0,0-.081-.5.84.84,0,0,1-.032-.482c.048-.145.192-.242.353-.483a4.913,4.913,0,0,0,.483-.852.789.789,0,0,0-.032-.837c-.209-.338-.643-.788-.9-1.11-.273-.305-.37-.482-.643-.8-.257-.338-.691-.82-1.286-1.5a28.766,28.766,0,0,1-1.946-2.331,16.018,16.018,0,0,1-1.238-2.059c-.242-.515-.354-.771-.466-1.028-.113-.241-.209-.5-.306-.676-.113-.193-.209-.305-.289-.466a4.95,4.95,0,0,1-.29-.627c-.129-.322-.306-.788-.466-1.093a2.238,2.238,0,0,0-.515-.643.212.212,0,0,1,.081-.177c.1-.081.273-.209.45-.338a1.68,1.68,0,0,0-.483-.322c-.241-.1-.563-.193-.772-.273a1.471,1.471,0,0,1-.4-.241,2.415,2.415,0,0,0-.385-.29,4.5,4.5,0,0,1-.627-.466c-.37-.322-1.013-.917-1.656-1.5-.016-.145-.032-.305-.048-.45a3.218,3.218,0,0,0-.82-.515,1.179,1.179,0,0,0-.707,0,3,3,0,0,0-.322-.257c-.177-.128-.482-.37-.868-.66a11.228,11.228,0,0,1-1.141-.884c-.306-.273-.435-.483-.66-.691-.225-.193-.514-.386-.755-.6-.258-.225-.45-.466-.627-.6a.3.3,0,0,0-.466.032,1.47,1.47,0,0,0-.289.771,3.144,3.144,0,0,0,.032.868c-.257-.113-.514-.225-.932-.45a7.327,7.327,0,0,1-1.512-1,11.9,11.9,0,0,1-1.464-1.511c.209.53.418,1.077.611,1.656a9.919,9.919,0,0,0,.66,1.818,9.225,9.225,0,0,0,1.19,1.608c-.531.273-1.046.53-1.576.8-.258-.322-.5-.643-1.3-1.56-.8-.933-2.139-2.443-3.489-3.971.691.964,1.382,1.929,1.849,2.637a13.66,13.66,0,0,1,.917,1.624c-.708-.74-1.415-1.5-1.993-2.01a11.417,11.417,0,0,0-1.528-1.126c.112.193.225.37.338.6.112.209.225.45.338.708-.756-.756-1.528-1.5-2.187-2.027a12.494,12.494,0,0,0-1.833-1.157c.756.579,1.5,1.142,2.139,1.72.627.579,1.174,1.158,1.7,1.737a13.835,13.835,0,0,0-2.765-1.721,7.2,7.2,0,0,0-2.605-.433,15.768,15.768,0,0,1,2.026.449,5.068,5.068,0,0,1,1.544.82,7.026,7.026,0,0,1,1.206,1.19,4.728,4.728,0,0,1,.739,1.271,7.126,7.126,0,0,1,.322,1.254,10.538,10.538,0,0,0-.948-.482,8.2,8.2,0,0,0-.917-.354,2,2,0,0,1,.386.306c.145.145.306.353.483.563a4.713,4.713,0,0,0-1.03-.5c-.482-.161-1.174-.321-1.881-.482.6.241,1.174.482,1.559.675a3.342,3.342,0,0,1,.8.579,8.666,8.666,0,0,1-1.319-.531c-.691-.338-1.785-.948-2.878-1.544.579.419,1.142.836,1.689,1.222.53.386,1.028.756,1.527,1.11-.6-.193-1.174-.37-1.962-.6-.788-.241-1.769-.5-2.879-.772-1.125-.273-2.363-.531-3.585-.8,1.141.418,2.283.82,3.216,1.19.916.37,1.624.692,2.331,1.03a15.093,15.093,0,0,0-1.656-.515,12.209,12.209,0,0,0-1.737-.273,15.256,15.256,0,0,1,1.673.515c.707.273,1.623.675,2.54,1.077-.209-.064-.4-.128-.9-.289s-1.3-.435-1.994-.627-1.271-.29-1.866-.4c.547.273,1.11.531,1.48.74a9.618,9.618,0,0,1,.819.515,23.915,23.915,0,0,0-2.476-1.094,9.628,9.628,0,0,0-2.058-.434,17.927,17.927,0,0,1,2.316,1.077A20.013,20.013,0,0,1,93.1,19.245a15.731,15.731,0,0,0-1.768-.627,10.487,10.487,0,0,0-1.544-.354c.032.032.964.274,1.623.531a5.927,5.927,0,0,1,1.415.788,7.478,7.478,0,0,0-1.431-.466c-.579-.129-1.334-.209-2.074-.306.225.048.45.1.917.225a14.817,14.817,0,0,1,1.608.6,2.627,2.627,0,0,1,.82.579c-.386-.129-.788-.257-1.094-.338-.322-.081-.563-.113-.74-.145a1.337,1.337,0,0,1-.386-.1.964.964,0,0,0-.256-.177,2.873,2.873,0,0,0-.627-.209c-.193-.064-.322-.1-.434-.145s-.193-.112-.273-.145a.861.861,0,0,1-.193-.048.313.313,0,0,1-.128-.21,3.814,3.814,0,0,1-.016-.45,2.038,2.038,0,0,0-.048-.369,1.337,1.337,0,0,0-.145-.258,1.089,1.089,0,0,1-.032-.353c-.016-.161-.032-.355-.032-.515a2.435,2.435,0,0,1,.032-.353,1.787,1.787,0,0,0,.032-.418,1.5,1.5,0,0,0-.064-.4,3.772,3.772,0,0,1-.145-.386,1.682,1.682,0,0,1-.032-.4,1.256,1.256,0,0,0,.032-.322c0-.081-.064-.113-.112-.146.081-.305.145-.61.209-.8a1.539,1.539,0,0,1,.161-.354l.048.048a2.933,2.933,0,0,0,.289.258,1.421,1.421,0,0,0,.563.273,1.5,1.5,0,0,0,.659-.016.92.92,0,0,0,.338-.241.95.95,0,0,1,.322-.193,1.707,1.707,0,0,0,.3-.081.507.507,0,0,0,.225-.257,1.43,1.43,0,0,0,.113-.354c0-.1,0-.129.032-.161a.276.276,0,0,1,.193-.1c.1-.016.225.016.305,0a.2.2,0,0,0,.161-.177,1.383,1.383,0,0,0,.048-.161c0-.032,0-.048.048-.048a.673.673,0,0,1,.161.016.824.824,0,0,0,.29.017.523.523,0,0,0,.322-.113c.081-.064.112-.176.128-.433a10.3,10.3,0,0,0,.017-1.045.846.846,0,0,1,.273-.273,2.851,2.851,0,0,0,.626-.483,3.919,3.919,0,0,0,.547-.884,3.135,3.135,0,0,0,.66.032.722.722,0,0,0,.418-.177c.081-.064.064-.128.1-.225A1.5,1.5,0,0,0,95.707,8a2.863,2.863,0,0,0-.016-.514,3.319,3.319,0,0,0,.386-.081c.241-.064.643-.192.948-.3a2.3,2.3,0,0,0,.627-.338c.113-.1.1-.161-.065-.193s-.466,0-.772-.032a8.462,8.462,0,0,1-.884-.128,5.558,5.558,0,0,0,.016-1.158,4.749,4.749,0,0,0-.322-1.382,5.438,5.438,0,0,0-.884-1.512,7.848,7.848,0,0,0-1.415-1.3A5.807,5.807,0,0,0,91.639.191,3.865,3.865,0,0,0,90.323,0ZM3.768,59.712a5.241,5.241,0,0,0-.745,1.245Q3.4,60.314,3.768,59.712ZM83.151,14.531c.041.009.062.063.11.244a9.687,9.687,0,0,1,.209,1.19c.049.466.065.884.129,1.238a4.767,4.767,0,0,0,.256,1c.113.338.258.676.354.949a4.174,4.174,0,0,1,.145.659,1.746,1.746,0,0,0,.177.547c.113.257.354.643.579,1.03a7.576,7.576,0,0,1-.8-.225c-.193-.081-.306-.161-.45-.225-.129-.081-.321-.145-.449-.209a.764.764,0,0,1-.29-.193c-.08-.081-.176-.178-.273-.258a1.345,1.345,0,0,0-.37-.193,3.323,3.323,0,0,1-.386-.145c-.1-.048-.113-.1-.113-.129,0-.048.016-.08.016-.209a2.026,2.026,0,0,0-.048-.45c-.016-.128-.048-.161-.048-.241a.66.66,0,0,1,.016-.306,1.386,1.386,0,0,1,.145-.225.543.543,0,0,0,.032-.241c-.016-.1-.032-.21-.048-.29a.555.555,0,0,1-.081-.321c-.016-.209.016-.594,0-1a11.565,11.565,0,0,0-.145-1.255,6.463,6.463,0,0,0,.579-.289c.161-.113.258-.226.386-.306a.906.906,0,0,1,.322-.144A.111.111,0,0,1,83.151,14.531Zm25.437,17.434.1.048a4.933,4.933,0,0,1,.418.321c.032.032.064.049.1.081a1.561,1.561,0,0,1-.177.079.318.318,0,0,1-.177,0,.386.386,0,0,1-.161-.161.691.691,0,0,1-.1-.273Zm7.171,3.071c.643.257,1.384.546,2.123.836-.032.081-.081.145-.113.225-.128.016-.257.032-.4.048a3.429,3.429,0,0,1-1.028-.1.831.831,0,0,1-.547-.306.607.607,0,0,1-.081-.433A1.391,1.391,0,0,1,115.759,35.036ZM43.335,53.318a.417.417,0,0,1,.29.064,1.286,1.286,0,0,1,.37.6,6.163,6.163,0,0,1,.338,1.4,6.614,6.614,0,0,1-.048,1.769,14.272,14.272,0,0,1-.659,2.234c-.338.949-.8,2.171-1.3,3.217-.482,1.045-.98,1.913-1.479,2.781a2.3,2.3,0,0,1-.483-.208c-.193-.113-.45-.29-.852-.5-.418-.209-.981-.434-1.511-.707a8.921,8.921,0,0,1-1.415-.885,2.606,2.606,0,0,1-.772-.916,1.483,1.483,0,0,1-.112-.9,2.7,2.7,0,0,1,.337-.853,5.993,5.993,0,0,1,.6-.82,3.756,3.756,0,0,1,.707-.643,6.961,6.961,0,0,1,.837-.466,4.237,4.237,0,0,0,1.045-.74c.5-.45,1.254-1.239,1.977-2.027S42.627,54.122,43.335,53.318Zm11.353.354c.611.289,1.222.579,1.672.756.45.193.74.257,1.158.418a10.658,10.658,0,0,1,1.287.563,4.36,4.36,0,0,1,.676.418,3.112,3.112,0,0,0,.531.241c.193.048.418.1.626.162s.418.144.724.241a10.348,10.348,0,0,0,1.334.338c.627.129,1.464.258,2.043.354.579.081.884.128,1.173.161.29.016.547.017.741.049a1.792,1.792,0,0,1,.418.176,1.023,1.023,0,0,0,.273.032h.048a2.95,2.95,0,0,0,.338.676,1.3,1.3,0,0,0,.627.433,4.286,4.286,0,0,0,.98.162,2.579,2.579,0,0,0,.129.433,2.56,2.56,0,0,1,.289.6c.1.258.161.643.273,1.094.113.434.258.949.4,1.528a15.3,15.3,0,0,1,.306,1.913c.081.691.113,1.431.177,2.331.048.884.128,1.914.209,2.863.081.964.145,1.816.273,2.573a13.21,13.21,0,0,0,.418,1.865c.161.483.306.8.45,1.142-.081.177-.161.37-.241.547a7.3,7.3,0,0,1-1.512-.048c-.723-.1-1.769-.322-2.653-.515s-1.623-.354-2.074-.45a5.451,5.451,0,0,1-.788-.193.758.758,0,0,1-.338-.289.972.972,0,0,1-.1-.354c-.707-.241-1.4-.5-1.866-.643a7.244,7.244,0,0,0-.932-.225,2.4,2.4,0,0,0-.515-.37.611.611,0,0,0-.4-.064.638.638,0,0,0-.354.081.4.4,0,0,0-.145.256,2.312,2.312,0,0,0-.514-.369,5.818,5.818,0,0,1-.66-.241,1.656,1.656,0,0,1-.674-.66,3.03,3.03,0,0,1-.258-1.045,4.189,4.189,0,0,0-.161-.8.956.956,0,0,0-.338-.483,1.056,1.056,0,0,0-.466-.079,4,4,0,0,1-.579-.1A2.428,2.428,0,0,1,56.279,69a.646.646,0,0,1-.208-.128,1.551,1.551,0,0,0-.371.289c-.112.128-.225.289-.337.4-.129.1-.258.145-.354.225a2.825,2.825,0,0,0-.225.241c-.081.065-.144.081-.176.032a1.2,1.2,0,0,1-.048-.273.175.175,0,0,0-.129-.129c-.048-.016-.1.016-.4.241-.305.209-.884.627-1.448,1.045-1.045-.756-2.073-1.511-2.685-2.026A2.313,2.313,0,0,1,49,67.71a4.663,4.663,0,0,1-.048-1.624,11.378,11.378,0,0,1,.594-2.573,12.307,12.307,0,0,1,1.271-2.476,14.635,14.635,0,0,1,1.11-1.384,6.921,6.921,0,0,0,.868-1.527c.338-.724.788-1.785,1.125-2.588C54.237,54.75,54.462,54.2,54.687,53.672Z" transform="translate(0 0.001)" fill="#112853"/>
</svg>
