<svg xmlns="http://www.w3.org/2000/svg" width="26" height="26" viewBox="0 0 26 26">
  <g id="Group_267" data-name="Group 267" transform="translate(-357 -717)">
    <path id="Path_11" data-name="Path 11" d="M26.111,17H5.889A2.667,2.667,0,0,0,3,19.357a2.667,2.667,0,0,0,2.889,2.357H26.111A2.667,2.667,0,0,0,29,19.357,2.667,2.667,0,0,0,26.111,17Z" transform="translate(354 721.286)" fill="#f5f5f5"/>
    <path id="Path_12" data-name="Path 12" d="M26.111,10H5.889A2.667,2.667,0,0,0,3,12.357a2.667,2.667,0,0,0,2.889,2.357H26.111A2.667,2.667,0,0,0,29,12.357,2.667,2.667,0,0,0,26.111,10Z" transform="translate(354 717.643)" fill="#f5f5f5"/>
    <path id="Path_13" data-name="Path 13" d="M26.111,3H5.889A2.667,2.667,0,0,0,3,5.357,2.667,2.667,0,0,0,5.889,7.714H26.111A2.667,2.667,0,0,0,29,5.357,2.667,2.667,0,0,0,26.111,3Z" transform="translate(354 714)" fill="#f5f5f5"/>
  </g>
</svg>
