<svg xmlns="http://www.w3.org/2000/svg" width="27.798" height="26" viewBox="0 0 27.798 26">
  <path id="Path_6" data-name="Path 6" d="M70,64.822a12.934,12.934,0,0,0-10.1-5.239,12.768,12.768,0,0,0-10.105,5.239A18.82,18.82,0,0,0,46,76.4a19.605,19.605,0,0,0,1.893,8.506,1.2,1.2,0,0,0,1.574.566l4.07-1.857a1.183,1.183,0,0,0,.582-1.592,12.867,12.867,0,0,1-1.26-5.623A12.115,12.115,0,0,1,55.2,69.046a5.546,5.546,0,0,1,9.4,0A12.115,12.115,0,0,1,66.941,76.4a12.863,12.863,0,0,1-1.26,5.623,1.184,1.184,0,0,0,.582,1.592l4.07,1.857a1.2,1.2,0,0,0,1.574-.566A19.6,19.6,0,0,0,73.8,76.4,18.819,18.819,0,0,0,70,64.822ZM49.8,71.388a1.448,1.448,0,1,1-1.448,1.448A1.448,1.448,0,0,1,49.8,71.388Zm.1,10.468a1.448,1.448,0,1,1,1.448-1.448A1.448,1.448,0,0,1,49.9,81.855Zm3.29-14.291a1.448,1.448,0,1,1,1.448-1.448,1.448,1.448,0,0,1-1.448,1.448ZM59.9,64.458a1.448,1.448,0,1,1,1.448-1.448A1.448,1.448,0,0,1,59.9,64.458ZM66.6,67.564a1.448,1.448,0,1,1,1.448-1.448A1.448,1.448,0,0,1,66.6,67.564Zm3.29,14.291a1.448,1.448,0,1,1,1.448-1.448,1.448,1.448,0,0,1-1.448,1.448Zm.1-7.572a1.448,1.448,0,1,1,1.448-1.448,1.448,1.448,0,0,1-1.448,1.448Z" transform="translate(-46 -59.583)" fill="#f5f5f5"/>
</svg>
