<svg xmlns="http://www.w3.org/2000/svg" width="28.6" height="26" viewBox="0 0 28.6 26">
  <g id="Group_268" data-name="Group 268" transform="translate(-113 -717)">
    <path id="Path_7" data-name="Path 7" d="M6.1,18H3.55a2.55,2.55,0,1,0,0,5.1H6.1a2.55,2.55,0,1,0,0-5.1Z" transform="translate(112 719.9)" fill="#f5f5f5"/>
    <path id="Path_8" data-name="Path 8" d="M14.1,16H11.55A2.557,2.557,0,0,0,9,18.55V21.1a2.557,2.557,0,0,0,2.55,2.55H14.1a2.557,2.557,0,0,0,2.55-2.55V18.55A2.557,2.557,0,0,0,14.1,16Z" transform="translate(114.475 719.35)" fill="#f5f5f5"/>
    <path id="Path_9" data-name="Path 9" d="M22.1,12H19.55A2.557,2.557,0,0,0,17,14.55V22.2a2.557,2.557,0,0,0,2.55,2.55H22.1a2.557,2.557,0,0,0,2.55-2.55V14.55A2.557,2.557,0,0,0,22.1,12Z" transform="translate(116.95 718.25)" fill="#f5f5f5"/>
    <path id="Path_10" data-name="Path 10" d="M28.3,2H19.721a1.272,1.272,0,0,0-.91,2.168l2.47,2.422c-4.81,5.355-11.7,9.435-18.981,9.435a1.275,1.275,0,1,0,0,2.55c8.711,0,16.771-2.423,22.622-8.415l2.34,2.3a1.3,1.3,0,0,0,2.21-.892V3.275A1.063,1.063,0,0,0,28.3,2Z" transform="translate(112 715)" fill="#f5f5f5"/>
  </g>
</svg>
