<svg xmlns="http://www.w3.org/2000/svg" width="18.572" height="26" viewBox="0 0 18.572 26">
  <path id="_8665454_indian_rupee_sign_icon" data-name="8665454_indian_rupee_sign_icon" d="M18.559,40.357A1.857,1.857,0,0,1,16.7,42.214H14.613a8.357,8.357,0,0,1-7.069,6.43l8.375,5.983a1.857,1.857,0,0,1,.433,2.591A1.932,1.932,0,0,1,14.792,58a1.851,1.851,0,0,1-1.078-.345l-13-9.286a1.941,1.941,0,0,1-.638-2.08A1.794,1.794,0,0,1,1.844,45H6.487a4.646,4.646,0,0,0,4.249-2.786H1.844a1.857,1.857,0,1,1,0-3.714h8.891a4.647,4.647,0,0,0-4.248-2.786H1.844a1.857,1.857,0,1,1,0-3.714H16.7a1.857,1.857,0,1,1,0,3.714H13.429A8.3,8.3,0,0,1,14.616,38.5H16.7A1.855,1.855,0,0,1,18.559,40.357Z" transform="translate(0.014 -32)" fill="#f5f5f5"/>
</svg>
